<svg width="16" height="16" viewBox="0 0 16 16" fill="none" xmlns="http://www.w3.org/2000/svg">
<rect width="16" height="16" rx="4" fill="#18181B"/>
<path d="M3.14 6.588H2.516V6.084L3.14 6.012V5.148C3.14 4.372 3.26 3.804 3.5 3.444C3.74 3.076 4.144 2.892 4.712 2.892C4.904 2.892 5.084 2.92 5.252 2.976C5.42 3.024 5.556 3.076 5.66 3.132C5.764 3.188 5.828 3.224 5.852 3.24L5.732 3.708C5.708 3.692 5.656 3.664 5.576 3.624C5.496 3.576 5.392 3.532 5.264 3.492C5.136 3.452 5.004 3.432 4.868 3.432C4.652 3.432 4.484 3.484 4.364 3.588C4.244 3.692 4.152 3.876 4.088 4.14C4.032 4.404 4.004 4.772 4.004 5.244V6H5.744V6.588H4.004V12H3.14V6.588ZM8.77372 12.12C7.97372 12.12 7.34572 11.872 6.88972 11.376C6.43372 10.872 6.20572 10.12 6.20572 9.12C6.20572 8.112 6.42572 7.32 6.86572 6.744C7.30572 6.168 7.90572 5.88 8.66572 5.88C9.35372 5.88 9.88172 6.12 10.2497 6.6C10.6257 7.072 10.8137 7.744 10.8137 8.616C10.8137 8.768 10.8057 8.892 10.7897 8.988C10.7737 9.084 10.7617 9.144 10.7537 9.168H7.11772C7.11772 10.784 7.70172 11.592 8.86972 11.592C9.18972 11.592 9.46172 11.536 9.68572 11.424C9.91772 11.304 10.0977 11.18 10.2257 11.052C10.3537 10.916 10.4177 10.836 10.4177 10.812L10.7657 11.1C10.7657 11.132 10.6897 11.236 10.5377 11.412C10.3857 11.58 10.1617 11.74 9.86572 11.892C9.56972 12.044 9.20572 12.12 8.77372 12.12ZM9.99772 8.664L10.0097 8.436C10.0097 7.076 9.56172 6.396 8.66572 6.396C8.19372 6.396 7.82972 6.584 7.57372 6.96C7.31772 7.328 7.16972 7.896 7.12972 8.664H9.99772ZM12.0992 12V3.024L12.9632 2.976V12H12.0992Z" fill="white"/>
</svg>
